<svg id="Layer_1" data-name="Layer 1" xmlns="http://www.w3.org/2000/svg" xmlns:xlink="http://www.w3.org/1999/xlink" viewBox="0 0 349.8 114.49"><defs><style>.cls-1{fill:url(#linear-gradient);}.cls-2{font-size:84.38px;font-family:ErasITC-Bold, Eras Bold ITC;font-weight:700;}</style><linearGradient id="linear-gradient" x1="103.4" y1="244.94" x2="140.93" y2="282.47" gradientTransform="translate(31.3 -52.69) scale(0.82 1.15)" gradientUnits="userSpaceOnUse"><stop offset="0" stop-color="#004412"/><stop offset="0.13" stop-color="#004714"/><stop offset="0.23" stop-color="#02511b"/><stop offset="0.33" stop-color="#046327"/><stop offset="0.42" stop-color="#087b37"/><stop offset="0.5" stop-color="#0b9347"/><stop offset="0.53" stop-color="#0c8a42"/><stop offset="0.65" stop-color="#106b33"/><stop offset="0.78" stop-color="#135629"/><stop offset="0.89" stop-color="#144822"/><stop offset="1" stop-color="#154420"/></linearGradient></defs><text x="-90.07" y="-183.42"/><path class="cls-1" d="M112.47,261.65v2.53q0,6,3.87,9.32t10.13,3.34A42.51,42.51,0,0,0,140,274.51a81.5,81.5,0,0,0,13.94-6.18q6.93-3.84,16.94-10.33v6.18Q155.81,278,142.61,285.3a54.57,54.57,0,0,1-26.81,7.34q-11.86,0-18.8-7t-6.93-19.15a31.22,31.22,0,0,1,6.53-19.29q6.54-8.67,21.34-18.29A88.1,88.1,0,0,1,138.07,219a57.14,57.14,0,0,1,17.87-3.35q6.27,0,9.94,2.18a7.11,7.11,0,0,1,3.66,6.53q0,6.39-6.27,12.72t-19.13,12.56A226.44,226.44,0,0,1,112.47,261.65Zm1.33-6.58a84.73,84.73,0,0,0,20.54-8.82q8.53-5.26,12.6-10.08t4.07-7c0-1.55-.94-2.32-2.8-2.32q-2.4,0-7.8,2.32a66.79,66.79,0,0,0-10.94,6.08,51.07,51.07,0,0,0-9.93,8.81A25,25,0,0,0,113.8,255.07Z" transform="translate(-90.07 -183.42)"/><text class="cls-2" transform="translate(83.55 93.4) scale(0.77 1)">supplier</text></svg>