<svg id="Layer_1" data-name="Layer 1" xmlns="http://www.w3.org/2000/svg" xmlns:xlink="http://www.w3.org/1999/xlink" viewBox="0 0 432.53 109.85"><defs><style>.cls-1{fill:url(#linear-gradient);}.cls-2{font-size:90px;fill:#fff;font-family:MonotypeCorsiva, Monotype Corsiva;}</style><linearGradient id="linear-gradient" x1="2.66" y1="180.47" x2="49.09" y2="226.9" gradientTransform="matrix(0.5, -0.14, 0.22, 0.77, 13.56, 91.07)" gradientUnits="userSpaceOnUse"><stop offset="0" stop-color="#00521c"/><stop offset="0.12" stop-color="#03551d"/><stop offset="0.21" stop-color="#0b5f22"/><stop offset="0.3" stop-color="#187129"/><stop offset="0.38" stop-color="#2b8934"/><stop offset="0.46" stop-color="#43a841"/><stop offset="0.5" stop-color="#50b848"/><stop offset="0.59" stop-color="#3c983e"/><stop offset="0.7" stop-color="#297935"/><stop offset="0.8" stop-color="#1c642e"/><stop offset="0.91" stop-color="#14562a"/><stop offset="1" stop-color="#115229"/></linearGradient></defs><text x="-43.16" y="-183.42"/><path class="cls-1" d="M98,252.8l.85.06a7.34,7.34,0,0,1,1,.15,5.28,5.28,0,0,1,.82.26.71.71,0,0,1,.44.4.37.37,0,0,1-.08.3,36.31,36.31,0,0,1-4.76,6.15,42,42,0,0,1-5.81,5A41.57,41.57,0,0,1,84,269a43.8,43.8,0,0,1-6.92,2.6,36.84,36.84,0,0,1-11.45,1.48,28.6,28.6,0,0,1-9.83-2,21.43,21.43,0,0,1-7.46-5A17.34,17.34,0,0,1,44,258.61a23.1,23.1,0,0,1-.81-7.37,27.24,27.24,0,0,1,1.51-7.67,33.24,33.24,0,0,1,3.75-7.46,36.59,36.59,0,0,1,5.93-6.82,43,43,0,0,1,8-5.68,46.71,46.71,0,0,1,10.14-4.09,37.33,37.33,0,0,1,7.23-1.33,25.05,25.05,0,0,1,6.4.25,12.51,12.51,0,0,1,4.88,1.91A6.57,6.57,0,0,1,93.73,224q.94,3.36-1.68,6.79a30,30,0,0,1-8,6.82,93.86,93.86,0,0,1-13,6.68q-7.62,3.3-16.66,6.41l.16.56a18.44,18.44,0,0,0,9.93,12,21.61,21.61,0,0,0,7.78,2,25.1,25.1,0,0,0,8.68-.95,32.25,32.25,0,0,0,8.81-4.05A37.86,37.86,0,0,0,98,252.8ZM81.22,229a5.59,5.59,0,0,0-1.57-2.61,7.66,7.66,0,0,0-2.79-1.68,11.25,11.25,0,0,0-3.7-.61,14.91,14.91,0,0,0-4.25.59,22.18,22.18,0,0,0-5.68,2.41,19.16,19.16,0,0,0-4.17,3.39,18.25,18.25,0,0,0-2.85,4.07A21.79,21.79,0,0,0,54.52,239a22.76,22.76,0,0,0-.7,4.49,23.06,23.06,0,0,0,.12,4.27q7-2.32,12.39-4.71a59.82,59.82,0,0,0,8.91-4.74,18.13,18.13,0,0,0,5.07-4.69A5.42,5.42,0,0,0,81.22,229Z" transform="translate(-43.16 -183.42)"/><text class="cls-2" transform="translate(52.84 82.25) scale(0.84 1)">Supplier-CDL</text></svg>