<svg id="Layer_1" data-name="Layer 1" xmlns="http://www.w3.org/2000/svg" xmlns:xlink="http://www.w3.org/1999/xlink" viewBox="0 0 151.51 121.36"><defs><style>.cls-1{fill:url(#linear-gradient);}.cls-2{font-size:60px;font-family:Cookie-Regular, Cookie;}.cls-2,.cls-3{fill:#fff;}.cls-3{font-size:12px;font-family:Cambria;}.cls-4{letter-spacing:-0.01em;}</style><linearGradient id="linear-gradient" x1="260.82" y1="260.4" x2="268.22" y2="292.72" gradientTransform="matrix(0.25, -0.13, 0.21, 0.41, 29.26, 177.04)" gradientUnits="userSpaceOnUse"><stop offset="0" stop-color="#188c44"/><stop offset="0.12" stop-color="#1b8e44"/><stop offset="0.23" stop-color="#259244"/><stop offset="0.32" stop-color="#379a44"/><stop offset="0.41" stop-color="#4fa643"/><stop offset="0.48" stop-color="#67b143"/><stop offset="0.56" stop-color="#72bc43"/><stop offset="0.65" stop-color="#76c043"/><stop offset="0.75" stop-color="#4fa842"/><stop offset="0.86" stop-color="#2a9241"/><stop offset="0.94" stop-color="#138540"/><stop offset="1" stop-color="#0b8040"/></linearGradient></defs><text x="-143.42" y="-190.55"/><path class="cls-1" d="M164.8,256.86l.34,0a2.57,2.57,0,0,1,.39,0,1.21,1.21,0,0,1,.34.05.25.25,0,0,1,.2.12.15.15,0,0,1,0,.13,14.88,14.88,0,0,1-1.32,2.79,16.64,16.64,0,0,1-1.82,2.42,15.33,15.33,0,0,1-2.19,2,17.18,17.18,0,0,1-2.45,1.53,13.83,13.83,0,0,1-4.28,1.4,10.83,10.83,0,0,1-3.95-.09,8.74,8.74,0,0,1-3.29-1.45,7.43,7.43,0,0,1-2.28-2.69,9.83,9.83,0,0,1-.93-2.88,11.91,11.91,0,0,1-.06-3.16,13.61,13.61,0,0,1,2.54-6.37,16.53,16.53,0,0,1,2.62-2.84,17.72,17.72,0,0,1,3.56-2.35,13.85,13.85,0,0,1,2.68-1,8.75,8.75,0,0,1,2.48-.36,4.92,4.92,0,0,1,2,.41,2.76,2.76,0,0,1,1.33,1.28,3.13,3.13,0,0,1-.08,2.82,11.59,11.59,0,0,1-2.5,3.29,35.83,35.83,0,0,1-4.44,3.58q-2.65,1.86-5.88,3.74l.11.21A8,8,0,0,0,150,262a7.62,7.62,0,0,0,2.76,1.44,8.17,8.17,0,0,0,3.17.23,9.5,9.5,0,0,0,3.26-1,12.27,12.27,0,0,0,3-2.24A14.35,14.35,0,0,0,164.8,256.86Zm-8.45-8.28a2.48,2.48,0,0,0-.83-.93,3.22,3.22,0,0,0-1.21-.47,4.62,4.62,0,0,0-1.48,0,5.69,5.69,0,0,0-1.58.54,8.12,8.12,0,0,0-2,1.37,7.25,7.25,0,0,0-1.32,1.65,7.39,7.39,0,0,0-.76,1.82,8.81,8.81,0,0,0-.28,1.88,9.34,9.34,0,0,0,.11,1.84,9.5,9.5,0,0,0,.4,1.69q2.49-1.42,4.38-2.76a21.68,21.68,0,0,0,3-2.52,6.89,6.89,0,0,0,1.56-2.23A2.25,2.25,0,0,0,156.35,248.58Z" transform="translate(-143.42 -190.55)"/><text class="cls-2" transform="translate(24.6 75.7) scale(0.84 1)">Supplier</text><text class="cls-3" transform="translate(118.01 91.79) scale(0.96 1)">CDP<tspan class="cls-4" x="21.5" y="0">L</tspan><tspan x="27.86" y="0">C</tspan></text></svg>