<svg id="Layer_1" data-name="Layer 1" xmlns="http://www.w3.org/2000/svg" xmlns:xlink="http://www.w3.org/1999/xlink" viewBox="0 0 420.85653 311.86328"><defs><style>.cls-1{fill:url(#linear-gradient);}.cls-2{font-size:160.99594px;font-family:Cookie-Regular, Cookie;}.cls-2,.cls-3{fill:#fff;}.cls-3{font-size:32.19919px;font-family:Cambria;}.cls-4{letter-spacing:-0.00731em;}.cls-5{letter-spacing:0.00003em;}</style><linearGradient id="linear-gradient" x1="-30.17963" y1="135.77665" x2="-9.93705" y2="224.19594" gradientTransform="matrix(0.25379, -0.12861, 0.20624, 0.40696, 29.25742, 177.03705)" gradientUnits="userSpaceOnUse"><stop offset="0" stop-color="#188c44"/><stop offset="0.12482" stop-color="#1b8e44"/><stop offset="0.2272" stop-color="#259244"/><stop offset="0.32165" stop-color="#379a44"/><stop offset="0.41077" stop-color="#4fa643"/><stop offset="0.48051" stop-color="#67b143"/><stop offset="0.5632" stop-color="#72bc43"/><stop offset="0.65282" stop-color="#76c043"/><stop offset="0.75049" stop-color="#4fa842"/><stop offset="0.85778" stop-color="#2a9241"/><stop offset="0.9448" stop-color="#138540"/><stop offset="1" stop-color="#0b8040"/></linearGradient></defs><text x="-33.50675" y="-92.10352"/><path class="cls-1" d="M92.90381,256.25488c.23584-.03125.54443-.0625.92627-.09668a8.8027,8.8027,0,0,1,1.08789-.02929,5.118,5.118,0,0,1,.94726.123.79985.79985,0,0,1,.55518.33692.40739.40739,0,0,1-.01025.34179,38.08543,38.08543,0,0,1-3.66993,7.48243,43.62607,43.62607,0,0,1-5.03906,6.49609,43.18171,43.18171,0,0,1-6.09814,5.37793,45.95329,45.95329,0,0,1-6.79834,4.10351,39.44991,39.44991,0,0,1-11.8916,3.76563,31.79637,31.79637,0,0,1-10.97364-.251,24.51285,24.51285,0,0,1-9.13672-3.89941,20.04236,20.04236,0,0,1-6.332-7.20313,25.63921,25.63921,0,0,1-2.56933-7.72363,29.32457,29.32457,0,0,1-.16358-8.48047,34.654,34.654,0,0,1,2.28076-8.69043,37.49071,37.49071,0,0,1,4.75684-8.415,44.42585,44.42585,0,0,1,7.28711-7.6167,49.10372,49.10372,0,0,1,9.89355-6.313,40.12313,40.12313,0,0,1,7.42286-2.79395,26.80334,26.80334,0,0,1,6.89941-.96484,13.91729,13.91729,0,0,1,5.6582,1.1123,7.48578,7.48578,0,0,1,3.69385,3.4375q1.78712,3.40577-.2168,7.57617a31.21439,31.21439,0,0,1-6.94384,8.8125,98.09143,98.09143,0,0,1-12.31934,9.61914q-7.38062,4.97754-16.32812,10.0293l.29785.56738a21.43234,21.43234,0,0,0,5.729,7.01563,21.1812,21.1812,0,0,0,7.66748,3.86328,23.90112,23.90112,0,0,0,8.77881.63281,26.97885,26.97885,0,0,0,9.061-2.67285,33.47378,33.47378,0,0,0,8.4746-6.0166A38.75746,38.75746,0,0,0,92.90381,256.25488ZM69.40918,234.05811a6.53979,6.53979,0,0,0-2.28369-2.49073,8.75853,8.75853,0,0,0-3.37451-1.26562,12.62532,12.62532,0,0,0-4.09864.05566,15.91387,15.91387,0,0,0-4.41113,1.44531,23.143,23.143,0,0,0-5.51562,3.66553,20.07425,20.07425,0,0,0-3.66895,4.42041,19.08855,19.08855,0,0,0-2.1001,4.8877,22.65035,22.65035,0,0,0-.78027,5.06152,25.29254,25.29254,0,0,0,.28906,4.93652,26.55159,26.55159,0,0,0,1.1167,4.53125q6.94629-3.82031,12.15918-7.40039a61.35469,61.35469,0,0,0,8.42578-6.76855,18.606,18.606,0,0,0,4.33155-5.98242A5.84492,5.84492,0,0,0,69.40918,234.05811Z" transform="translate(-33.50675 -92.10352)"/><text class="cls-2" transform="translate(68.32689 189.35441) scale(0.87207 1)">Supplier</text><text class="cls-3" transform="translate(327.7932 232.52824) scale(0.9913 1)">CDP<tspan class="cls-4" x="57.7004" y="0">L</tspan><tspan class="cls-5" x="74.74326" y="0">C</tspan></text></svg>