<?xml version="1.0" encoding="utf-8"?>
<!-- Generator: Adobe Illustrator 26.0.2, SVG Export Plug-In . SVG Version: 6.00 Build 0)  -->
<svg version="1.1" id="Layer_1" xmlns="http://www.w3.org/2000/svg" xmlns:xlink="http://www.w3.org/1999/xlink" x="0px" y="0px"
	 viewBox="0 0 1024 1024" style="enable-background:new 0 0 1024 1024;" xml:space="preserve">
<style type="text/css">
	.st0{fill:#1B75BC;}
</style>
<path class="st0" d="M602,328.1H243.6c-18.8,0-34.1-15.4-34.1-34.1s15.4-34.1,34.1-34.1H602c18.8,0,34.1,15.4,34.1,34.1
	S620.8,328.1,602,328.1L602,328.1z M393,515.8H239.4c-18.8,0-34.1-15.4-34.1-34.1s15.4-34.1,34.1-34.1H393
	c18.8,0,34.1,15.4,34.1,34.1S411.7,515.8,393,515.8z M324.7,703.6h-85.3c-18.8,0-34.1-15.4-34.1-34.1s15.4-34.1,34.1-34.1h85.3
	c18.8,0,34.1,15.4,34.1,34.1S343.5,703.6,324.7,703.6L324.7,703.6z M682.7,426.7c-141.2,0-256,114.8-256,256s114.8,256,256,256
	s256-114.8,256-256S823.9,426.7,682.7,426.7L682.7,426.7z M682.7,870.4c-103.7,0-187.7-84.1-187.7-187.7S579,494.9,682.7,494.9
	S870.4,579,870.4,682.7S786.3,870.4,682.7,870.4z"/>
<path class="st0" d="M682.7,767.1c-13.2,13.2-35,13.2-48.2,0l-72.5-72.5c-13.2-13.2-13.2-35,0-48.2c13.2-13.2,35-13.2,48.2,0
	l72.5,72.5C695.9,732.2,695.9,753.9,682.7,767.1z"/>
<path class="st0" d="M803.4,646.4L682.7,767.1c-13.2,13.2-35,13.2-48.2,0c-13.2-13.2-13.2-35,0-48.2l120.7-120.7
	c13.2-13.2,35-13.2,48.2,0C816.6,611.4,816.6,633.2,803.4,646.4z"/>
<path class="st0" d="M358.4,806H156.2V157.4h529.1v201c0,18.8,15.4,34.1,34.1,34.1s34.1-15.4,34.1-34.1v-218
	c0-28.2-23-51.2-51.2-51.2H139.1c-28.2,0-51.2,23-51.2,51.2V823c0,28.2,23,51.2,51.2,51.2h219.3c18.8,0,34.1-15.4,34.1-34.1
	C392.5,820.9,377.2,806,358.4,806z"/>
</svg>
